<?xml version="1.0" encoding="utf-8"?>
<svg width="2235px" height="2235px" viewBox="0 0 2235 2235" version="1.1" xmlns:xlink="http://www.w3.org/1999/xlink" xmlns="http://www.w3.org/2000/svg">
  <g id="logo_circle">
    <path d="M0 1117.5C0 500.322 500.322 0 1117.5 0C1734.68 0 2235 500.322 2235 1117.5C2235 1734.68 1734.68 2235 1117.5 2235C500.322 2235 0 1734.68 0 1117.5Z" id="Ellipse" fill="#002346" fill-rule="evenodd" stroke="none" />
    <g id="A" transform="translate(673.00024 628.7998)">
      <g id="A">
        <path d="M657.702 39.165C557.763 52.6701 467.729 87.1084 387.598 142.48C307.468 197.851 244.669 267.627 199.201 351.81C153.734 435.992 131 527.152 131 625.289C131 707.221 146.756 772.045 178.268 819.764C209.78 867.482 251.196 891.341 302.516 891.341C352.935 891.341 401.328 856.453 447.696 786.676C494.064 716.899 531.428 625.514 559.789 512.521C588.15 399.528 602.33 281.808 602.33 159.361L729.279 109.392L729.279 817.063C729.279 842.272 734.681 862.53 745.485 877.836C756.289 893.142 771.145 900.795 790.052 900.795C804.458 900.795 819.313 896.068 834.619 886.614C849.925 877.161 861.63 865.681 869.733 852.176L888.64 869.733C876.035 897.643 856.678 921.052 830.568 939.96C804.458 958.867 774.746 968.32 741.434 968.32C700.018 968.32 666.48 953.915 640.82 925.104C615.16 896.293 602.33 855.327 602.33 802.207L602.33 544.258L595.578 544.258C530.753 832.368 420.911 976.424 266.052 976.424C185.921 976.424 121.547 948.288 72.9279 892.016C24.3093 835.745 -4.7702e-06 758.54 0 660.403C0 547.86 29.7114 442.069 89.1341 343.031C148.557 243.993 228.687 163.413 329.526 101.289C430.365 39.165 539.756 5.40208 657.702 0L657.702 39.165Z" id="A" fill="#FFFFFF" fill-rule="evenodd" stroke="none" />
      </g>
    </g>
  </g>
</svg>