<?xml version="1.0" standalone="no"?>
<!DOCTYPE svg PUBLIC "-//W3C//DTD SVG 20010904//EN"
 "http://www.w3.org/TR/2001/REC-SVG-20010904/DTD/svg10.dtd">
<svg version="1.0" xmlns="http://www.w3.org/2000/svg"
 width="1618.000000pt" height="1618.000000pt" viewBox="0 0 1618.000000 1618.000000"
 preserveAspectRatio="xMidYMid meet">
<metadata>
Created by potrace 1.14, written by Peter Selinger 2001-2017
</metadata>
<g transform="translate(0.000000,1618.000000) scale(0.100000,-0.100000)"
fill="#000000" stroke="none">
<path d="M3687 16174 c-1 -1 -60 -5 -132 -8 -157 -9 -185 -11 -250 -20 -27 -4
-63 -8 -80 -10 -428 -53 -926 -222 -1305 -443 -195 -115 -461 -307 -625 -452
-76 -68 -331 -326 -385 -391 -30 -36 -57 -67 -60 -70 -34 -32 -159 -203 -264
-360 -157 -236 -288 -505 -390 -799 -34 -97 -95 -312 -101 -356 -1 -11 -7 -40
-13 -65 -14 -59 -49 -270 -56 -340 -3 -30 -9 -93 -13 -140 -10 -111 -10 -9170
-1 -9277 9 -89 35 -293 43 -333 3 -14 8 -40 11 -59 3 -18 7 -41 9 -50 28 -131
40 -182 70 -287 37 -131 101 -312 141 -402 13 -29 24 -55 24 -58 0 -8 140
-286 150 -299 4 -5 20 -32 35 -60 57 -104 204 -316 320 -460 134 -167 388
-428 540 -555 55 -45 112 -93 127 -106 55 -48 285 -204 409 -278 357 -214 806
-378 1205 -442 20 -3 44 -7 53 -9 15 -2 75 -11 146 -20 17 -2 66 -8 110 -12
98 -10 9236 -11 9355 -1 352 29 673 104 1046 246 110 41 292 129 408 195 106
60 326 199 359 227 7 6 57 45 113 88 142 109 210 169 359 317 131 131 196 200
270 290 22 26 45 53 51 59 6 6 42 54 81 106 253 342 438 699 557 1075 34 106
73 253 82 305 3 14 7 33 10 42 6 20 7 23 33 183 21 128 27 175 39 313 9 113 9
9108 0 9232 -25 319 -84 621 -177 906 -86 263 -230 566 -380 799 -271 421
-658 825 -1061 1108 -52 37 -99 70 -105 75 -71 56 -550 312 -585 312 -6 0 -18
4 -28 10 -76 43 -460 164 -592 185 -19 3 -51 10 -70 15 -19 5 -60 12 -90 15
-30 4 -58 9 -62 11 -4 2 -28 6 -55 9 -26 2 -64 7 -83 9 -59 8 -131 15 -220 22
-66 6 -8966 13 -8973 8z"/>
</g>
</svg>
