<?xml version="1.0" encoding="utf-8"?>
<svg width="1618px" height="1618px" viewBox="0 0 1618 1618" version="1.1" xmlns:xlink="http://www.w3.org/1999/xlink" xmlns="http://www.w3.org/2000/svg">
  <g id="logo_square">
    <path d="M0 758L0 379C0 274.342 37.0022 185.011 111.007 111.007C185.011 37.0022 274.342 0 379 0L1239 0C1343.66 0 1432.99 37.0022 1506.99 111.007C1581 185.011 1618 274.342 1618 379L1618 1239C1618 1343.66 1581 1432.99 1506.99 1506.99C1432.99 1581 1343.66 1618 1239 1618L379 1618C274.342 1618 185.011 1581 111.007 1506.99C37.0022 1432.99 0 1343.66 0 1239L0 758Z" id="Block" fill="#002346" fill-rule="evenodd" stroke="none" />
    <g id="A" transform="translate(437 328)">
      <g id="A" fill="#FFFFFF" transform="translate(0 -567.5)">
        <path d="M565.92 699.66Q446.04 715.86 349.92 782.28Q253.8 848.7 199.26 949.68Q144.72 1050.66 144.72 1168.38Q144.72 1266.66 182.52 1323.9Q220.32 1381.14 281.88 1381.14Q342.36 1381.14 397.98 1297.44Q453.6 1213.74 487.62 1078.2Q521.64 942.66 521.64 795.78L623.16 755.82L623.16 1321.74Q623.16 1351.98 636.12 1370.34Q649.08 1388.7 671.76 1388.7Q689.04 1388.7 707.4 1377.36Q725.76 1366.02 735.48 1349.82L750.6 1363.86Q735.48 1397.34 704.16 1420.02Q672.84 1442.7 632.88 1442.7Q583.2 1442.7 552.42 1408.14Q521.64 1373.58 521.64 1309.86L521.64 1103.58L516.24 1103.58C464.4 1333.98 376.56 1449.18 252.72 1449.18Q156.6 1449.18 98.28 1381.68Q39.96 1314.18 39.96 1196.46Q39.96 1061.46 111.24 942.66Q182.52 823.86 303.48 749.34Q424.44 674.82 565.92 668.34L565.92 699.66Z" />
      </g>
    </g>
  </g>
</svg>